<?xml version="1.0" encoding="UTF-8" standalone="no"?>
<!DOCTYPE svg PUBLIC "-//W3C//DTD SVG 1.1//EN"
 "http://www.w3.org/Graphics/SVG/1.1/DTD/svg11.dtd">
<!-- Generated by graphviz version 2.38.0 (20140413.2041)
 -->
<!-- Title: controllers_diagram Pages: 1 -->
<svg width="631pt" height="569pt"
 viewBox="0.00 0.00 631.04 569.00" xmlns="http://www.w3.org/2000/svg" xmlns:xlink="http://www.w3.org/1999/xlink">
<g id="graph0" class="graph" transform="scale(1 1) rotate(0) translate(242.269 378.5)">
<title>controllers_diagram</title>
<polygon fill="none" stroke="none" points="-242.269,190.5 -242.269,-378.5 388.772,-378.5 388.772,190.5 -242.269,190.5"/>
<!-- _diagram_info -->
<g id="node1" class="node"><title>_diagram_info</title>
<text text-anchor="start" x="93.3123" y="127.9" font-family="Times,serif" font-size="13.00">Controllers diagram</text>
<text text-anchor="start" x="93.3123" y="140.9" font-family="Times,serif" font-size="13.00">Date: Mar 01 2017 &#45; 20:44</text>
<text text-anchor="start" x="93.3123" y="153.9" font-family="Times,serif" font-size="13.00">Migration version: 20160612025456</text>
<text text-anchor="start" x="93.3123" y="166.9" font-family="Times,serif" font-size="13.00">Generated by RailRoady 1.5.2</text>
<text text-anchor="start" x="93.3123" y="179.9" font-family="Times,serif" font-size="13.00">http://railroady.prestonlee.com</text>
</g>
<!-- AnswersController -->
<g id="node2" class="node"><title>AnswersController</title>
<path fill="none" stroke="black" d="M-226.269,-86C-226.269,-86 -127.731,-86 -127.731,-86 -121.731,-86 -115.731,-92 -115.731,-98 -115.731,-98 -115.731,-178 -115.731,-178 -115.731,-184 -121.731,-190 -127.731,-190 -127.731,-190 -226.269,-190 -226.269,-190 -232.269,-190 -238.269,-184 -238.269,-178 -238.269,-178 -238.269,-98 -238.269,-98 -238.269,-92 -232.269,-86 -226.269,-86"/>
<text text-anchor="middle" x="-177" y="-174.8" font-family="Times,serif" font-size="14.00">AnswersController</text>
<polyline fill="none" stroke="black" points="-238.269,-168 -115.731,-168 "/>
<text text-anchor="start" x="-230.269" y="-152.8" font-family="Times,serif" font-size="14.00">create</text>
<polyline fill="none" stroke="black" points="-238.269,-146 -115.731,-146 "/>
<polyline fill="none" stroke="black" points="-238.269,-122 -115.731,-122 "/>
<text text-anchor="start" x="-230.269" y="-106.8" font-family="Times,serif" font-size="14.00">_layout</text>
<text text-anchor="start" x="-230.269" y="-92.8" font-family="Times,serif" font-size="14.00">answer_params</text>
</g>
<!-- ApplicationController -->
<g id="node3" class="node"><title>ApplicationController</title>
<path fill="none" stroke="black" d="M148.034,-137C148.034,-137 321.966,-137 321.966,-137 327.966,-137 333.966,-143 333.966,-149 333.966,-149 333.966,-215 333.966,-215 333.966,-221 327.966,-227 321.966,-227 321.966,-227 148.034,-227 148.034,-227 142.034,-227 136.034,-221 136.034,-215 136.034,-215 136.034,-149 136.034,-149 136.034,-143 142.034,-137 148.034,-137"/>
<text text-anchor="middle" x="235" y="-211.8" font-family="Times,serif" font-size="14.00">ApplicationController</text>
<polyline fill="none" stroke="black" points="136.034,-205 333.966,-205 "/>
<text text-anchor="start" x="144.034" y="-189.8" font-family="Times,serif" font-size="14.00">configure_permitted_parameters</text>
<polyline fill="none" stroke="black" points="136.034,-183 333.966,-183 "/>
<polyline fill="none" stroke="black" points="136.034,-159 333.966,-159 "/>
<text text-anchor="start" x="144.034" y="-143.8" font-family="Times,serif" font-size="14.00">_layout</text>
</g>
<!-- EntriesController -->
<g id="node4" class="node"><title>EntriesController</title>
<path fill="none" stroke="black" d="M-21.8037,-137C-21.8037,-137 93.8037,-137 93.8037,-137 99.8037,-137 105.804,-143 105.804,-149 105.804,-149 105.804,-271 105.804,-271 105.804,-277 99.8037,-283 93.8037,-283 93.8037,-283 -21.8037,-283 -21.8037,-283 -27.8037,-283 -33.8037,-277 -33.8037,-271 -33.8037,-271 -33.8037,-149 -33.8037,-149 -33.8037,-143 -27.8037,-137 -21.8037,-137"/>
<text text-anchor="middle" x="36" y="-267.8" font-family="Times,serif" font-size="14.00">EntriesController</text>
<polyline fill="none" stroke="black" points="-33.8037,-261 105.804,-261 "/>
<text text-anchor="start" x="-25.8037" y="-245.8" font-family="Times,serif" font-size="14.00">create</text>
<text text-anchor="start" x="-25.8037" y="-231.8" font-family="Times,serif" font-size="14.00">destroy</text>
<polyline fill="none" stroke="black" points="-33.8037,-225 105.804,-225 "/>
<polyline fill="none" stroke="black" points="-33.8037,-201 105.804,-201 "/>
<text text-anchor="start" x="-25.8037" y="-185.8" font-family="Times,serif" font-size="14.00">_layout</text>
<text text-anchor="start" x="-25.8037" y="-171.8" font-family="Times,serif" font-size="14.00">check_before_create</text>
<text text-anchor="start" x="-25.8037" y="-157.8" font-family="Times,serif" font-size="14.00">check_before_destroy</text>
<text text-anchor="start" x="-25.8037" y="-143.8" font-family="Times,serif" font-size="14.00">create_params</text>
</g>
<!-- OffMeetingsController -->
<g id="node5" class="node"><title>OffMeetingsController</title>
<path fill="none" stroke="black" d="M-73.4185,135C-73.4185,135 47.4185,135 47.4185,135 53.4185,135 59.4185,129 59.4185,123 59.4185,123 59.4185,-97 59.4185,-97 59.4185,-103 53.4185,-109 47.4185,-109 47.4185,-109 -73.4185,-109 -73.4185,-109 -79.4185,-109 -85.4185,-103 -85.4185,-97 -85.4185,-97 -85.4185,123 -85.4185,123 -85.4185,129 -79.4185,135 -73.4185,135"/>
<text text-anchor="middle" x="-13" y="-93.8" font-family="Times,serif" font-size="14.00">OffMeetingsController</text>
<polyline fill="none" stroke="black" points="-85.4185,-87 59.4185,-87 "/>
<text text-anchor="start" x="-77.4185" y="-71.8" font-family="Times,serif" font-size="14.00">create</text>
<text text-anchor="start" x="-77.4185" y="-57.8" font-family="Times,serif" font-size="14.00">destroy</text>
<text text-anchor="start" x="-77.4185" y="-43.8" font-family="Times,serif" font-size="14.00">edit</text>
<text text-anchor="start" x="-77.4185" y="-29.8" font-family="Times,serif" font-size="14.00">get_area</text>
<text text-anchor="start" x="-77.4185" y="-15.8" font-family="Times,serif" font-size="14.00">index</text>
<text text-anchor="start" x="-77.4185" y="-1.8" font-family="Times,serif" font-size="14.00">new</text>
<text text-anchor="start" x="-77.4185" y="12.2" font-family="Times,serif" font-size="14.00">search</text>
<text text-anchor="start" x="-77.4185" y="26.2" font-family="Times,serif" font-size="14.00">show</text>
<text text-anchor="start" x="-77.4185" y="40.2" font-family="Times,serif" font-size="14.00">show_map</text>
<text text-anchor="start" x="-77.4185" y="54.2" font-family="Times,serif" font-size="14.00">update</text>
<polyline fill="none" stroke="black" points="-85.4185,61 59.4185,61 "/>
<polyline fill="none" stroke="black" points="-85.4185,85 59.4185,85 "/>
<text text-anchor="start" x="-77.4185" y="100.2" font-family="Times,serif" font-size="14.00">_layout</text>
<text text-anchor="start" x="-77.4185" y="114.2" font-family="Times,serif" font-size="14.00">off_meeting_params</text>
<text text-anchor="start" x="-77.4185" y="128.2" font-family="Times,serif" font-size="14.00">set_off_meeting</text>
</g>
<!-- QuestionsController -->
<g id="node6" class="node"><title>QuestionsController</title>
<path fill="none" stroke="black" d="M267.228,-256C267.228,-256 372.772,-256 372.772,-256 378.772,-256 384.772,-262 384.772,-268 384.772,-268 384.772,-362 384.772,-362 384.772,-368 378.772,-374 372.772,-374 372.772,-374 267.228,-374 267.228,-374 261.228,-374 255.228,-368 255.228,-362 255.228,-362 255.228,-268 255.228,-268 255.228,-262 261.228,-256 267.228,-256"/>
<text text-anchor="middle" x="320" y="-358.8" font-family="Times,serif" font-size="14.00">QuestionsController</text>
<polyline fill="none" stroke="black" points="255.228,-352 384.772,-352 "/>
<text text-anchor="start" x="263.228" y="-336.8" font-family="Times,serif" font-size="14.00">create</text>
<text text-anchor="start" x="263.228" y="-322.8" font-family="Times,serif" font-size="14.00">update</text>
<polyline fill="none" stroke="black" points="255.228,-316 384.772,-316 "/>
<polyline fill="none" stroke="black" points="255.228,-292 384.772,-292 "/>
<text text-anchor="start" x="263.228" y="-276.8" font-family="Times,serif" font-size="14.00">_layout</text>
<text text-anchor="start" x="263.228" y="-262.8" font-family="Times,serif" font-size="14.00">question_params</text>
</g>
<!-- RelationshipsController -->
<g id="node7" class="node"><title>RelationshipsController</title>
<path fill="none" stroke="black" d="M-208.883,-222C-208.883,-222 -83.1172,-222 -83.1172,-222 -77.1172,-222 -71.1172,-228 -71.1172,-234 -71.1172,-234 -71.1172,-314 -71.1172,-314 -71.1172,-320 -77.1172,-326 -83.1172,-326 -83.1172,-326 -208.883,-326 -208.883,-326 -214.883,-326 -220.883,-320 -220.883,-314 -220.883,-314 -220.883,-234 -220.883,-234 -220.883,-228 -214.883,-222 -208.883,-222"/>
<text text-anchor="middle" x="-146" y="-310.8" font-family="Times,serif" font-size="14.00">RelationshipsController</text>
<polyline fill="none" stroke="black" points="-220.883,-304 -71.1172,-304 "/>
<text text-anchor="start" x="-212.883" y="-288.8" font-family="Times,serif" font-size="14.00">create</text>
<text text-anchor="start" x="-212.883" y="-274.8" font-family="Times,serif" font-size="14.00">destroy</text>
<polyline fill="none" stroke="black" points="-220.883,-268 -71.1172,-268 "/>
<polyline fill="none" stroke="black" points="-220.883,-244 -71.1172,-244 "/>
<text text-anchor="start" x="-212.883" y="-228.8" font-family="Times,serif" font-size="14.00">_layout</text>
</g>
<!-- UsersController -->
<g id="node8" class="node"><title>UsersController</title>
<path fill="none" stroke="black" d="M96.686,84C96.686,84 233.314,84 233.314,84 239.314,84 245.314,78 245.314,72 245.314,72 245.314,-92 245.314,-92 245.314,-98 239.314,-104 233.314,-104 233.314,-104 96.686,-104 96.686,-104 90.686,-104 84.686,-98 84.686,-92 84.686,-92 84.686,72 84.686,72 84.686,78 90.686,84 96.686,84"/>
<text text-anchor="middle" x="165" y="-88.8" font-family="Times,serif" font-size="14.00">UsersController</text>
<polyline fill="none" stroke="black" points="84.686,-82 245.314,-82 "/>
<text text-anchor="start" x="92.686" y="-66.8" font-family="Times,serif" font-size="14.00">edit</text>
<text text-anchor="start" x="92.686" y="-52.8" font-family="Times,serif" font-size="14.00">edit_password</text>
<text text-anchor="start" x="92.686" y="-38.8" font-family="Times,serif" font-size="14.00">show</text>
<text text-anchor="start" x="92.686" y="-24.8" font-family="Times,serif" font-size="14.00">update</text>
<text text-anchor="start" x="92.686" y="-10.8" font-family="Times,serif" font-size="14.00">update_password</text>
<polyline fill="none" stroke="black" points="84.686,-4 245.314,-4 "/>
<polyline fill="none" stroke="black" points="84.686,20 245.314,20 "/>
<text text-anchor="start" x="92.686" y="35.2" font-family="Times,serif" font-size="14.00">_layout</text>
<text text-anchor="start" x="92.686" y="49.2" font-family="Times,serif" font-size="14.00">update_params</text>
<text text-anchor="start" x="92.686" y="63.2" font-family="Times,serif" font-size="14.00">update_password_params</text>
<text text-anchor="start" x="92.686" y="77.2" font-family="Times,serif" font-size="14.00">user_check</text>
</g>
</g>
</svg>
