<?xml version="1.0" encoding="UTF-8" standalone="no"?>
<!DOCTYPE svg PUBLIC "-//W3C//DTD SVG 1.1//EN"
 "http://www.w3.org/Graphics/SVG/1.1/DTD/svg11.dtd">
<!-- Generated by graphviz version 2.38.0 (20140413.2041)
 -->
<!-- Title: models_diagram Pages: 1 -->
<svg width="809pt" height="970pt"
 viewBox="0.00 0.00 808.96 970.00" xmlns="http://www.w3.org/2000/svg" xmlns:xlink="http://www.w3.org/1999/xlink">
<g id="graph0" class="graph" transform="scale(1 1) rotate(0) translate(4 966)">
<title>models_diagram</title>
<polygon fill="none" stroke="none" points="-4,4 -4,-966 804.962,-966 804.962,4 -4,4"/>
<!-- _diagram_info -->
<g id="node1" class="node"><title>_diagram_info</title>
<text text-anchor="start" x="8" y="-877.6" font-family="Times,serif" font-size="13.00">Models diagram</text>
<text text-anchor="start" x="8" y="-864.6" font-family="Times,serif" font-size="13.00">Date: Mar 01 2017 &#45; 20:44</text>
<text text-anchor="start" x="8" y="-851.6" font-family="Times,serif" font-size="13.00">Migration version: 20160612025456</text>
<text text-anchor="start" x="8" y="-838.6" font-family="Times,serif" font-size="13.00">Generated by RailRoady 1.5.2</text>
<text text-anchor="start" x="8" y="-825.6" font-family="Times,serif" font-size="13.00">http://railroady.prestonlee.com</text>
</g>
<!-- Answer -->
<g id="node2" class="node"><title>Answer</title>
<path fill="none" stroke="black" d="M372.182,-0.5C372.182,-0.5 481.193,-0.5 481.193,-0.5 487.193,-0.5 493.193,-6.5 493.193,-12.5 493.193,-12.5 493.193,-102.5 493.193,-102.5 493.193,-108.5 487.193,-114.5 481.193,-114.5 481.193,-114.5 372.182,-114.5 372.182,-114.5 366.182,-114.5 360.182,-108.5 360.182,-102.5 360.182,-102.5 360.182,-12.5 360.182,-12.5 360.182,-6.5 366.182,-0.5 372.182,-0.5"/>
<text text-anchor="middle" x="426.688" y="-99.3" font-family="Times,serif" font-size="14.00">Answer</text>
<polyline fill="none" stroke="black" points="360.182,-92.5 493.193,-92.5 "/>
<text text-anchor="start" x="368.182" y="-77.3" font-family="Times,serif" font-size="14.00">id :int(11)</text>
<text text-anchor="start" x="368.182" y="-63.3" font-family="Times,serif" font-size="14.00">answer :text</text>
<text text-anchor="start" x="368.182" y="-49.3" font-family="Times,serif" font-size="14.00">user_id :int(11)</text>
<text text-anchor="start" x="368.182" y="-35.3" font-family="Times,serif" font-size="14.00">question_id :int(11)</text>
<text text-anchor="start" x="368.182" y="-21.3" font-family="Times,serif" font-size="14.00">created_at :datetime</text>
<text text-anchor="start" x="368.182" y="-7.3" font-family="Times,serif" font-size="14.00">updated_at :datetime</text>
</g>
<!-- Area -->
<g id="node3" class="node"><title>Area</title>
<path fill="none" stroke="black" d="M650.413,-464.5C650.413,-464.5 788.962,-464.5 788.962,-464.5 794.962,-464.5 800.962,-470.5 800.962,-476.5 800.962,-476.5 800.962,-552.5 800.962,-552.5 800.962,-558.5 794.962,-564.5 788.962,-564.5 788.962,-564.5 650.413,-564.5 650.413,-564.5 644.413,-564.5 638.413,-558.5 638.413,-552.5 638.413,-552.5 638.413,-476.5 638.413,-476.5 638.413,-470.5 644.413,-464.5 650.413,-464.5"/>
<text text-anchor="middle" x="719.688" y="-549.3" font-family="Times,serif" font-size="14.00">Area</text>
<polyline fill="none" stroke="black" points="638.413,-542.5 800.962,-542.5 "/>
<text text-anchor="start" x="646.413" y="-527.3" font-family="Times,serif" font-size="14.00">id :int(11)</text>
<text text-anchor="start" x="646.413" y="-513.3" font-family="Times,serif" font-size="14.00">postal_code :varchar(255)</text>
<text text-anchor="start" x="646.413" y="-499.3" font-family="Times,serif" font-size="14.00">prefectural_id :int(11)</text>
<text text-anchor="start" x="646.413" y="-485.3" font-family="Times,serif" font-size="14.00">city :varchar(255)</text>
<text text-anchor="start" x="646.413" y="-471.3" font-family="Times,serif" font-size="14.00">street :varchar(255)</text>
</g>
<!-- Entry -->
<g id="node4" class="node"><title>Entry</title>
<path fill="none" stroke="black" d="M549.165,-159.5C549.165,-159.5 672.21,-159.5 672.21,-159.5 678.21,-159.5 684.21,-165.5 684.21,-171.5 684.21,-171.5 684.21,-247.5 684.21,-247.5 684.21,-253.5 678.21,-259.5 672.21,-259.5 672.21,-259.5 549.165,-259.5 549.165,-259.5 543.165,-259.5 537.165,-253.5 537.165,-247.5 537.165,-247.5 537.165,-171.5 537.165,-171.5 537.165,-165.5 543.165,-159.5 549.165,-159.5"/>
<text text-anchor="middle" x="610.688" y="-244.3" font-family="Times,serif" font-size="14.00">Entry</text>
<polyline fill="none" stroke="black" points="537.165,-237.5 684.21,-237.5 "/>
<text text-anchor="start" x="545.165" y="-222.3" font-family="Times,serif" font-size="14.00">id :int(11)</text>
<text text-anchor="start" x="545.165" y="-208.3" font-family="Times,serif" font-size="14.00">off_meeting_id :int(11)</text>
<text text-anchor="start" x="545.165" y="-194.3" font-family="Times,serif" font-size="14.00">user_id :int(11)</text>
<text text-anchor="start" x="545.165" y="-180.3" font-family="Times,serif" font-size="14.00">created_at :datetime</text>
<text text-anchor="start" x="545.165" y="-166.3" font-family="Times,serif" font-size="14.00">updated_at :datetime</text>
</g>
<!-- OffMeeting -->
<g id="node5" class="node"><title>OffMeeting</title>
<path fill="none" stroke="black" d="M236.92,-749.5C236.92,-749.5 424.455,-749.5 424.455,-749.5 430.455,-749.5 436.455,-755.5 436.455,-761.5 436.455,-761.5 436.455,-949.5 436.455,-949.5 436.455,-955.5 430.455,-961.5 424.455,-961.5 424.455,-961.5 236.92,-961.5 236.92,-961.5 230.92,-961.5 224.92,-955.5 224.92,-949.5 224.92,-949.5 224.92,-761.5 224.92,-761.5 224.92,-755.5 230.92,-749.5 236.92,-749.5"/>
<text text-anchor="middle" x="330.688" y="-946.3" font-family="Times,serif" font-size="14.00">OffMeeting</text>
<polyline fill="none" stroke="black" points="224.92,-939.5 436.455,-939.5 "/>
<text text-anchor="start" x="232.92" y="-924.3" font-family="Times,serif" font-size="14.00">id :int(11)</text>
<text text-anchor="start" x="232.92" y="-910.3" font-family="Times,serif" font-size="14.00">day :date</text>
<text text-anchor="start" x="232.92" y="-896.3" font-family="Times,serif" font-size="14.00">address :varchar(255)</text>
<text text-anchor="start" x="232.92" y="-882.3" font-family="Times,serif" font-size="14.00">level :varchar(255)</text>
<text text-anchor="start" x="232.92" y="-868.3" font-family="Times,serif" font-size="14.00">detail :text</text>
<text text-anchor="start" x="232.92" y="-854.3" font-family="Times,serif" font-size="14.00">created_at :datetime</text>
<text text-anchor="start" x="232.92" y="-840.3" font-family="Times,serif" font-size="14.00">updated_at :datetime</text>
<text text-anchor="start" x="232.92" y="-826.3" font-family="Times,serif" font-size="14.00">summary :varchar(255)</text>
<text text-anchor="start" x="232.92" y="-812.3" font-family="Times,serif" font-size="14.00">num_of_persons :int(11)</text>
<text text-anchor="start" x="232.92" y="-798.3" font-family="Times,serif" font-size="14.00">user_id :int(11)</text>
<text text-anchor="start" x="232.92" y="-784.3" font-family="Times,serif" font-size="14.00">address_postal_code :varchar(255)</text>
<text text-anchor="start" x="232.92" y="-770.3" font-family="Times,serif" font-size="14.00">latitude :float</text>
<text text-anchor="start" x="232.92" y="-756.3" font-family="Times,serif" font-size="14.00">longitude :float</text>
</g>
<!-- OffMeeting&#45;&gt;Entry -->
<g id="edge1" class="edge"><title>OffMeeting&#45;&gt;Entry</title>
<path fill="none" stroke="#25dc35" d="M444.369,-821.749C498.637,-799.881 558.784,-765.134 591.688,-712 636.438,-639.735 624.012,-386.314 615.569,-269.851"/>
<ellipse fill="none" stroke="#25dc35" cx="440.475" cy="-823.283" rx="4.00001" ry="4.00001"/>
<polygon fill="#25dc35" stroke="#25dc35" points="615.555,-269.662 619.305,-259.357 615.186,-264.676 614.817,-259.689 614.817,-259.689 614.817,-259.689 615.186,-264.676 610.33,-260.021 615.555,-269.662 615.555,-269.662"/>
</g>
<!-- Question -->
<g id="node7" class="node"><title>Question</title>
<path fill="none" stroke="black" d="M144.165,-152.5C144.165,-152.5 267.21,-152.5 267.21,-152.5 273.21,-152.5 279.21,-158.5 279.21,-164.5 279.21,-164.5 279.21,-254.5 279.21,-254.5 279.21,-260.5 273.21,-266.5 267.21,-266.5 267.21,-266.5 144.165,-266.5 144.165,-266.5 138.165,-266.5 132.165,-260.5 132.165,-254.5 132.165,-254.5 132.165,-164.5 132.165,-164.5 132.165,-158.5 138.165,-152.5 144.165,-152.5"/>
<text text-anchor="middle" x="205.688" y="-251.3" font-family="Times,serif" font-size="14.00">Question</text>
<polyline fill="none" stroke="black" points="132.165,-244.5 279.21,-244.5 "/>
<text text-anchor="start" x="140.165" y="-229.3" font-family="Times,serif" font-size="14.00">id :int(11)</text>
<text text-anchor="start" x="140.165" y="-215.3" font-family="Times,serif" font-size="14.00">question :text</text>
<text text-anchor="start" x="140.165" y="-201.3" font-family="Times,serif" font-size="14.00">user_id :int(11)</text>
<text text-anchor="start" x="140.165" y="-187.3" font-family="Times,serif" font-size="14.00">off_meeting_id :int(11)</text>
<text text-anchor="start" x="140.165" y="-173.3" font-family="Times,serif" font-size="14.00">created_at :datetime</text>
<text text-anchor="start" x="140.165" y="-159.3" font-family="Times,serif" font-size="14.00">updated_at :datetime</text>
</g>
<!-- OffMeeting&#45;&gt;Question -->
<g id="edge3" class="edge"><title>OffMeeting&#45;&gt;Question</title>
<path fill="none" stroke="#d9bf4e" d="M226.094,-742.235C220.43,-732.46 215.508,-722.34 211.688,-712 157.193,-564.484 176.604,-375.501 192.763,-276.984"/>
<ellipse fill="none" stroke="#d9bf4e" cx="228.279" cy="-745.864" rx="4.00002" ry="4.00002"/>
<polygon fill="#d9bf4e" stroke="#d9bf4e" points="192.806,-276.732 198.901,-267.617 193.635,-271.801 194.463,-266.871 194.463,-266.871 194.463,-266.871 193.635,-271.801 190.026,-266.125 192.806,-276.732 192.806,-276.732"/>
</g>
<!-- User -->
<g id="node9" class="node"><title>User</title>
<path fill="none" stroke="black" d="M232.641,-317.5C232.641,-317.5 428.735,-317.5 428.735,-317.5 434.735,-317.5 440.735,-323.5 440.735,-329.5 440.735,-329.5 440.735,-699.5 440.735,-699.5 440.735,-705.5 434.735,-711.5 428.735,-711.5 428.735,-711.5 232.641,-711.5 232.641,-711.5 226.641,-711.5 220.641,-705.5 220.641,-699.5 220.641,-699.5 220.641,-329.5 220.641,-329.5 220.641,-323.5 226.641,-317.5 232.641,-317.5"/>
<text text-anchor="middle" x="330.688" y="-696.3" font-family="Times,serif" font-size="14.00">User</text>
<polyline fill="none" stroke="black" points="220.641,-689.5 440.735,-689.5 "/>
<text text-anchor="start" x="228.641" y="-674.3" font-family="Times,serif" font-size="14.00">id :int(11)</text>
<text text-anchor="start" x="228.641" y="-660.3" font-family="Times,serif" font-size="14.00">email :varchar(255)</text>
<text text-anchor="start" x="228.641" y="-646.3" font-family="Times,serif" font-size="14.00">encrypted_password :varchar(255)</text>
<text text-anchor="start" x="228.641" y="-632.3" font-family="Times,serif" font-size="14.00">reset_password_token :varchar(255)</text>
<text text-anchor="start" x="228.641" y="-618.3" font-family="Times,serif" font-size="14.00">reset_password_sent_at :datetime</text>
<text text-anchor="start" x="228.641" y="-604.3" font-family="Times,serif" font-size="14.00">remember_created_at :datetime</text>
<text text-anchor="start" x="228.641" y="-590.3" font-family="Times,serif" font-size="14.00">sign_in_count :int(11)</text>
<text text-anchor="start" x="228.641" y="-576.3" font-family="Times,serif" font-size="14.00">current_sign_in_at :datetime</text>
<text text-anchor="start" x="228.641" y="-562.3" font-family="Times,serif" font-size="14.00">last_sign_in_at :datetime</text>
<text text-anchor="start" x="228.641" y="-548.3" font-family="Times,serif" font-size="14.00">current_sign_in_ip :varchar(255)</text>
<text text-anchor="start" x="228.641" y="-534.3" font-family="Times,serif" font-size="14.00">last_sign_in_ip :varchar(255)</text>
<text text-anchor="start" x="228.641" y="-520.3" font-family="Times,serif" font-size="14.00">created_at :datetime</text>
<text text-anchor="start" x="228.641" y="-506.3" font-family="Times,serif" font-size="14.00">updated_at :datetime</text>
<text text-anchor="start" x="228.641" y="-492.3" font-family="Times,serif" font-size="14.00">nickname :varchar(255)</text>
<text text-anchor="start" x="228.641" y="-478.3" font-family="Times,serif" font-size="14.00">area :varchar(255)</text>
<text text-anchor="start" x="228.641" y="-464.3" font-family="Times,serif" font-size="14.00">sex :varchar(255)</text>
<text text-anchor="start" x="228.641" y="-450.3" font-family="Times,serif" font-size="14.00">age :int(11)</text>
<text text-anchor="start" x="228.641" y="-436.3" font-family="Times,serif" font-size="14.00">detail :text</text>
<text text-anchor="start" x="228.641" y="-422.3" font-family="Times,serif" font-size="14.00">avatar_file_name :varchar(255)</text>
<text text-anchor="start" x="228.641" y="-408.3" font-family="Times,serif" font-size="14.00">avatar_content_type :varchar(255)</text>
<text text-anchor="start" x="228.641" y="-394.3" font-family="Times,serif" font-size="14.00">avatar_file_size :int(11)</text>
<text text-anchor="start" x="228.641" y="-380.3" font-family="Times,serif" font-size="14.00">avatar_updated_at :datetime</text>
<text text-anchor="start" x="228.641" y="-366.3" font-family="Times,serif" font-size="14.00">confirmation_token :varchar(255)</text>
<text text-anchor="start" x="228.641" y="-352.3" font-family="Times,serif" font-size="14.00">confirmed_at :datetime</text>
<text text-anchor="start" x="228.641" y="-338.3" font-family="Times,serif" font-size="14.00">confirmation_sent_at :datetime</text>
<text text-anchor="start" x="228.641" y="-324.3" font-family="Times,serif" font-size="14.00">unconfirmed_email :varchar(255)</text>
</g>
<!-- OffMeeting&#45;&gt;User -->
<g id="edge2" class="edge"><title>OffMeeting&#45;&gt;User</title>
<path fill="none" stroke="#e0c394" d="M324.25,-738.815C324.183,-733.284 324.128,-727.668 324.083,-721.994"/>
<polygon fill="#e0c394" stroke="#e0c394" points="324.253,-739.097 319.887,-749.156 324.32,-744.097 324.386,-749.097 324.386,-749.097 324.386,-749.097 324.32,-744.097 328.886,-749.037 324.253,-739.097 324.253,-739.097"/>
<polygon fill="#e0c394" stroke="#e0c394" points="324.081,-721.723 328.513,-711.693 324.047,-716.724 324.013,-711.724 324.013,-711.724 324.013,-711.724 324.047,-716.724 319.513,-711.754 324.081,-721.723 324.081,-721.723"/>
</g>
<!-- Prefectural -->
<g id="node6" class="node"><title>Prefectural</title>
<path fill="none" stroke="black" d="M668.689,-826.5C668.689,-826.5 770.686,-826.5 770.686,-826.5 776.686,-826.5 782.686,-832.5 782.686,-838.5 782.686,-838.5 782.686,-872.5 782.686,-872.5 782.686,-878.5 776.686,-884.5 770.686,-884.5 770.686,-884.5 668.689,-884.5 668.689,-884.5 662.689,-884.5 656.689,-878.5 656.689,-872.5 656.689,-872.5 656.689,-838.5 656.689,-838.5 656.689,-832.5 662.689,-826.5 668.689,-826.5"/>
<text text-anchor="middle" x="719.688" y="-869.3" font-family="Times,serif" font-size="14.00">Prefectural</text>
<polyline fill="none" stroke="black" points="656.689,-862.5 782.686,-862.5 "/>
<text text-anchor="start" x="664.689" y="-847.3" font-family="Times,serif" font-size="14.00">id :int(11)</text>
<text text-anchor="start" x="664.689" y="-833.3" font-family="Times,serif" font-size="14.00">name :varchar(255)</text>
</g>
<!-- Prefectural&#45;&gt;Area -->
<g id="edge4" class="edge"><title>Prefectural&#45;&gt;Area</title>
<path fill="none" stroke="#e83e4b" d="M719.688,-818.27C719.688,-759.992 719.688,-644.865 719.688,-574.582"/>
<ellipse fill="none" stroke="#e83e4b" cx="719.688" cy="-822.47" rx="4" ry="4"/>
<polygon fill="#e83e4b" stroke="#e83e4b" points="719.688,-574.549 724.188,-564.549 719.688,-569.549 719.688,-564.549 719.688,-564.549 719.688,-564.549 719.688,-569.549 715.188,-564.549 719.688,-574.549 719.688,-574.549"/>
</g>
<!-- Question&#45;&gt;Answer -->
<g id="edge5" class="edge"><title>Question&#45;&gt;Answer</title>
<path fill="none" stroke="#30cf0e" d="M286.075,-153.938C307.541,-139.369 330.648,-123.685 351.805,-109.326"/>
<ellipse fill="none" stroke="#30cf0e" cx="282.587" cy="-156.306" rx="4.00002" ry="4.00002"/>
<polygon fill="#30cf0e" stroke="#30cf0e" points="351.844,-109.299 362.645,-107.406 355.981,-106.491 360.118,-103.683 360.118,-103.683 360.118,-103.683 355.981,-106.491 357.591,-99.9596 351.844,-109.299 351.844,-109.299"/>
</g>
<!-- Relationship -->
<g id="node8" class="node"><title>Relationship</title>
<path fill="none" stroke="black" d="M314.182,-159.5C314.182,-159.5 423.193,-159.5 423.193,-159.5 429.193,-159.5 435.193,-165.5 435.193,-171.5 435.193,-171.5 435.193,-247.5 435.193,-247.5 435.193,-253.5 429.193,-259.5 423.193,-259.5 423.193,-259.5 314.182,-259.5 314.182,-259.5 308.182,-259.5 302.182,-253.5 302.182,-247.5 302.182,-247.5 302.182,-171.5 302.182,-171.5 302.182,-165.5 308.182,-159.5 314.182,-159.5"/>
<text text-anchor="middle" x="368.688" y="-244.3" font-family="Times,serif" font-size="14.00">Relationship</text>
<polyline fill="none" stroke="black" points="302.182,-237.5 435.193,-237.5 "/>
<text text-anchor="start" x="310.182" y="-222.3" font-family="Times,serif" font-size="14.00">id :int(11)</text>
<text text-anchor="start" x="310.182" y="-208.3" font-family="Times,serif" font-size="14.00">follower_id :int(11)</text>
<text text-anchor="start" x="310.182" y="-194.3" font-family="Times,serif" font-size="14.00">followed_id :int(11)</text>
<text text-anchor="start" x="310.182" y="-180.3" font-family="Times,serif" font-size="14.00">created_at :datetime</text>
<text text-anchor="start" x="310.182" y="-166.3" font-family="Times,serif" font-size="14.00">updated_at :datetime</text>
</g>
<!-- User&#45;&gt;Answer -->
<g id="edge9" class="edge"><title>User&#45;&gt;Answer</title>
<path fill="none" stroke="#dda4e3" d="M445.184,-377.564C460.594,-352.778 474.049,-326.131 482.688,-299 501.26,-240.668 481.689,-172.582 460.749,-123.772"/>
<ellipse fill="none" stroke="#dda4e3" cx="442.928" cy="-381.125" rx="4.00002" ry="4.00002"/>
<polygon fill="#dda4e3" stroke="#dda4e3" points="460.731,-123.732 460.81,-112.766 458.712,-119.158 456.693,-114.583 456.693,-114.583 456.693,-114.583 458.712,-119.158 452.577,-116.4 460.731,-123.732 460.731,-123.732"/>
</g>
<!-- User&#45;&gt;Entry -->
<g id="edge7" class="edge"><title>User&#45;&gt;Entry</title>
<path fill="none" stroke="#30cb96" d="M446.553,-388.118C485.362,-346.12 526.723,-301.362 558.216,-267.282"/>
<ellipse fill="none" stroke="#30cb96" cx="443.664" cy="-391.244" rx="4.00002" ry="4.00002"/>
<polygon fill="#30cb96" stroke="#30cb96" points="558.4,-267.083 568.492,-262.793 561.793,-263.411 565.187,-259.738 565.187,-259.738 565.187,-259.738 561.793,-263.411 561.882,-256.684 558.4,-267.083 558.4,-267.083"/>
</g>
<!-- User&#45;&gt;OffMeeting -->
<g id="edge6" class="edge"><title>User&#45;&gt;OffMeeting</title>
<path fill="none" stroke="#8fd8f0" d="M337.309,-719.864C337.261,-726.263 337.2,-732.593 337.126,-738.815"/>
<ellipse fill="none" stroke="#8fd8f0" cx="337.336" cy="-715.724" rx="4" ry="4"/>
<polygon fill="#8fd8f0" stroke="#8fd8f0" points="337.122,-739.097 332.489,-749.037 337.056,-744.097 336.989,-749.097 336.989,-749.097 336.989,-749.097 337.056,-744.097 341.489,-749.156 337.122,-739.097 337.122,-739.097"/>
</g>
<!-- User&#45;&gt;Question -->
<g id="edge8" class="edge"><title>User&#45;&gt;Question</title>
<path fill="none" stroke="#f92864" d="M233.782,-309.898C232.383,-306.248 231.016,-302.613 229.688,-299 227.022,-291.751 224.504,-284.071 222.175,-276.384"/>
<ellipse fill="none" stroke="#f92864" cx="235.252" cy="-313.683" rx="4.00001" ry="4.00001"/>
<polygon fill="#f92864" stroke="#f92864" points="222.142,-276.271 223.646,-265.409 220.734,-271.473 219.327,-266.675 219.327,-266.675 219.327,-266.675 220.734,-271.473 215.009,-267.942 222.142,-276.271 222.142,-276.271"/>
</g>
<!-- User&#45;&gt;Relationship -->
<g id="edge10" class="edge"><title>User&#45;&gt;Relationship</title>
<path fill="none" stroke="#93f8d6" d="M228.019,-309.529C230.431,-301.06 234.25,-292.842 239.722,-285 252.991,-265.986 268.16,-277.781 288.688,-267 290.052,-266.284 291.42,-265.547 292.79,-264.793"/>
<ellipse fill="none" stroke="#93f8d6" cx="227.099" cy="-313.478" rx="4.00001" ry="4.00001"/>
<polygon fill="#93f8d6" stroke="#93f8d6" points="293.168,-264.574 304.08,-263.48 297.5,-262.078 301.833,-259.581 301.833,-259.581 301.833,-259.581 297.5,-262.078 299.586,-255.682 293.168,-264.574 293.168,-264.574"/>
<text text-anchor="middle" x="296.671" y="-287.8" font-family="Times,serif" font-size="14.00">active_relationships</text>
</g>
<!-- User&#45;&gt;Relationship -->
<g id="edge11" class="edge"><title>User&#45;&gt;Relationship</title>
<path fill="none" stroke="#496114" d="M356.339,-308.967C358.088,-295.023 359.75,-281.765 361.256,-269.755"/>
<ellipse fill="none" stroke="#496114" cx="355.788" cy="-313.358" rx="4.00001" ry="4.00001"/>
<polygon fill="#496114" stroke="#496114" points="361.293,-269.46 367.003,-260.097 361.916,-264.499 362.538,-259.537 362.538,-259.537 362.538,-259.537 361.916,-264.499 358.073,-258.977 361.293,-269.46 361.293,-269.46"/>
<text text-anchor="middle" x="418.567" y="-287.8" font-family="Times,serif" font-size="14.00">passive_relationships</text>
</g>
<!-- User&#45;&gt;User -->
<g id="edge12" class="edge"><title>User&#45;&gt;User</title>
<path fill="none" stroke="#0c8508" d="M450.235,-527.046C455.601,-523.855 458.735,-519.673 458.735,-514.5 458.735,-509.327 455.601,-505.145 450.235,-501.954"/>
<polygon fill="#0c8508" stroke="#0c8508" points="450.087,-527.108 439.123,-526.868 445.483,-529.06 440.88,-531.011 440.88,-531.011 440.88,-531.011 445.483,-529.06 442.636,-535.154 450.087,-527.108 450.087,-527.108"/>
<polygon fill="#0c8508" stroke="#0c8508" points="450.087,-501.892 442.636,-493.846 445.483,-499.94 440.88,-497.989 440.88,-497.989 440.88,-497.989 445.483,-499.94 439.123,-502.132 450.087,-501.892 450.087,-501.892"/>
<text text-anchor="middle" x="485.955" y="-510.3" font-family="Times,serif" font-size="14.00">following</text>
</g>
<!-- User&#45;&gt;User -->
<g id="edge13" class="edge"><title>User&#45;&gt;User</title>
<path fill="none" stroke="#fc0468" d="M451.491,-554.619C485.897,-552.255 513.176,-538.882 513.176,-514.5 513.176,-490.118 485.897,-476.745 451.491,-474.381"/>
<polygon fill="#fc0468" stroke="#fc0468" points="451.107,-554.633 440.949,-550.501 446.11,-554.815 441.113,-554.998 441.113,-554.998 441.113,-554.998 446.11,-554.815 441.277,-559.495 451.107,-554.633 451.107,-554.633"/>
<polygon fill="#fc0468" stroke="#fc0468" points="451.107,-474.367 441.277,-469.505 446.11,-474.185 441.113,-474.002 441.113,-474.002 441.113,-474.002 446.11,-474.185 440.949,-478.499 451.107,-474.367 451.107,-474.367"/>
<text text-anchor="middle" x="539.614" y="-510.3" font-family="Times,serif" font-size="14.00">followers</text>
</g>
</g>
</svg>
