<?xml version="1.0" encoding="UTF-8" standalone="no"?>
<!DOCTYPE svg PUBLIC "-//W3C//DTD SVG 1.1//EN"
 "http://www.w3.org/Graphics/SVG/1.1/DTD/svg11.dtd">
<!-- Generated by graphviz version 2.38.0 (20140413.2041)
 -->
<!-- Title: models_diagram Pages: 1 -->
<svg width="586pt" height="313pt"
 viewBox="0.00 0.00 585.58 313.00" xmlns="http://www.w3.org/2000/svg" xmlns:xlink="http://www.w3.org/1999/xlink">
<g id="graph0" class="graph" transform="scale(1 1) rotate(0) translate(4 309)">
<title>models_diagram</title>
<polygon fill="none" stroke="none" points="-4,4 -4,-309 581.584,-309 581.584,4 -4,4"/>
<!-- _diagram_info -->
<g id="node1" class="node"><title>_diagram_info</title>
<text text-anchor="start" x="8" y="-290.6" font-family="Times,serif" font-size="13.00">Models diagram</text>
<text text-anchor="start" x="8" y="-277.6" font-family="Times,serif" font-size="13.00">Date: Mar 01 2017 &#45; 20:44</text>
<text text-anchor="start" x="8" y="-264.6" font-family="Times,serif" font-size="13.00">Migration version: 20160612025456</text>
<text text-anchor="start" x="8" y="-251.6" font-family="Times,serif" font-size="13.00">Generated by RailRoady 1.5.2</text>
<text text-anchor="start" x="8" y="-238.6" font-family="Times,serif" font-size="13.00">http://railroady.prestonlee.com</text>
</g>
<!-- Answer -->
<g id="node2" class="node"><title>Answer</title>
<ellipse fill="none" stroke="black" cx="333.688" cy="-18" rx="37.7266" ry="18"/>
<text text-anchor="middle" x="333.688" y="-13.8" font-family="Times,serif" font-size="14.00">Answer</text>
</g>
<!-- Area -->
<g id="node3" class="node"><title>Area</title>
<ellipse fill="none" stroke="black" cx="528.688" cy="-177" rx="27.0787" ry="18"/>
<text text-anchor="middle" x="528.688" y="-172.8" font-family="Times,serif" font-size="14.00">Area</text>
</g>
<!-- Entry -->
<g id="node4" class="node"><title>Entry</title>
<ellipse fill="none" stroke="black" cx="473.688" cy="-91" rx="29.5104" ry="18"/>
<text text-anchor="middle" x="473.688" y="-86.8" font-family="Times,serif" font-size="14.00">Entry</text>
</g>
<!-- OffMeeting -->
<g id="node5" class="node"><title>OffMeeting</title>
<ellipse fill="none" stroke="black" cx="276.688" cy="-268.5" rx="51.8983" ry="18"/>
<text text-anchor="middle" x="276.688" y="-264.3" font-family="Times,serif" font-size="14.00">OffMeeting</text>
</g>
<!-- OffMeeting&#45;&gt;Entry -->
<g id="edge1" class="edge"><title>OffMeeting&#45;&gt;Entry</title>
<path fill="none" stroke="#593c75" d="M331.748,-259.392C371.894,-250.522 424.374,-232.241 454.688,-195 471.951,-173.791 475.489,-141.955 475.469,-119.297"/>
<ellipse fill="none" stroke="#593c75" cx="327.808" cy="-260.221" rx="4.00001" ry="4.00001"/>
<polygon fill="#593c75" stroke="#593c75" points="475.462,-118.995 479.717,-108.888 475.34,-113.996 475.218,-108.997 475.218,-108.997 475.218,-108.997 475.34,-113.996 470.72,-109.107 475.462,-118.995 475.462,-118.995"/>
</g>
<!-- Question -->
<g id="node7" class="node"><title>Question</title>
<ellipse fill="none" stroke="black" cx="112.688" cy="-91" rx="42.0784" ry="18"/>
<text text-anchor="middle" x="112.688" y="-86.8" font-family="Times,serif" font-size="14.00">Question</text>
</g>
<!-- OffMeeting&#45;&gt;Question -->
<g id="edge3" class="edge"><title>OffMeeting&#45;&gt;Question</title>
<path fill="none" stroke="#543a29" d="M243.066,-248.486C208.103,-226.945 154.408,-188.57 124.688,-141 120.65,-134.538 117.971,-126.809 116.193,-119.42"/>
<ellipse fill="none" stroke="#543a29" cx="246.806" cy="-250.752" rx="4.00002" ry="4.00002"/>
<polygon fill="#543a29" stroke="#543a29" points="116.147,-119.184 118.649,-108.508 115.19,-114.277 114.233,-109.369 114.233,-109.369 114.233,-109.369 115.19,-114.277 109.816,-110.231 116.147,-119.184 116.147,-119.184"/>
</g>
<!-- User -->
<g id="node9" class="node"><title>User</title>
<ellipse fill="none" stroke="black" cx="276.688" cy="-177" rx="27" ry="18"/>
<text text-anchor="middle" x="276.688" y="-172.8" font-family="Times,serif" font-size="14.00">User</text>
</g>
<!-- OffMeeting&#45;&gt;User -->
<g id="edge2" class="edge"><title>OffMeeting&#45;&gt;User</title>
<path fill="none" stroke="#a31b2e" d="M270.413,-240.141C269.771,-228.959 269.779,-216.062 270.438,-204.925"/>
<polygon fill="#a31b2e" stroke="#a31b2e" points="270.424,-240.276 266.744,-250.606 270.827,-245.26 271.23,-250.243 271.23,-250.243 271.23,-250.243 270.827,-245.26 275.715,-249.881 270.424,-240.276 270.424,-240.276"/>
<polygon fill="#a31b2e" stroke="#a31b2e" points="270.443,-204.866 275.754,-195.272 270.856,-199.883 271.269,-194.9 271.269,-194.9 271.269,-194.9 270.856,-199.883 266.784,-194.528 270.443,-204.866 270.443,-204.866"/>
</g>
<!-- Prefectural -->
<g id="node6" class="node"><title>Prefectural</title>
<ellipse fill="none" stroke="black" cx="528.688" cy="-268.5" rx="48.7928" ry="18"/>
<text text-anchor="middle" x="528.688" y="-264.3" font-family="Times,serif" font-size="14.00">Prefectural</text>
</g>
<!-- Prefectural&#45;&gt;Area -->
<g id="edge4" class="edge"><title>Prefectural&#45;&gt;Area</title>
<path fill="none" stroke="#2de56e" d="M528.688,-241.903C528.688,-230.441 528.688,-216.914 528.688,-205.263"/>
<ellipse fill="none" stroke="#2de56e" cx="528.688" cy="-246.243" rx="4" ry="4"/>
<polygon fill="#2de56e" stroke="#2de56e" points="528.688,-205.204 533.188,-195.203 528.688,-200.204 528.688,-195.204 528.688,-195.204 528.688,-195.204 528.688,-200.204 524.188,-195.204 528.688,-205.204 528.688,-205.204"/>
</g>
<!-- Question&#45;&gt;Answer -->
<g id="edge5" class="edge"><title>Question&#45;&gt;Answer</title>
<path fill="none" stroke="#2399b2" d="M153.101,-77.0166C193.101,-64.1659 253.967,-44.6116 293.788,-31.8185"/>
<ellipse fill="none" stroke="#2399b2" cx="149.105" cy="-78.3002" rx="4.00001" ry="4.00001"/>
<polygon fill="#2399b2" stroke="#2399b2" points="293.912,-31.7787 304.809,-33.0042 298.672,-30.2493 303.433,-28.7199 303.433,-28.7199 303.433,-28.7199 298.672,-30.2493 302.056,-24.4356 293.912,-31.7787 293.912,-31.7787"/>
</g>
<!-- Relationship -->
<g id="node8" class="node"><title>Relationship</title>
<ellipse fill="none" stroke="black" cx="254.688" cy="-91" rx="54.6248" ry="18"/>
<text text-anchor="middle" x="254.688" y="-86.8" font-family="Times,serif" font-size="14.00">Relationship</text>
</g>
<!-- User&#45;&gt;Answer -->
<g id="edge9" class="edge"><title>User&#45;&gt;Answer</title>
<path fill="none" stroke="#3ea1ca" d="M311.993,-175.736C338.609,-173.442 373.526,-165.512 391.688,-141 415.07,-109.443 383.039,-66.9644 358.089,-41.3581"/>
<ellipse fill="none" stroke="#3ea1ca" cx="307.666" cy="-176.027" rx="4" ry="4"/>
<polygon fill="#3ea1ca" stroke="#3ea1ca" points="358.067,-41.3368 354.136,-31.0999 354.517,-37.8159 350.967,-34.295 350.967,-34.295 350.967,-34.295 354.517,-37.8159 347.798,-37.4901 358.067,-41.3368 358.067,-41.3368"/>
</g>
<!-- User&#45;&gt;Entry -->
<g id="edge7" class="edge"><title>User&#45;&gt;Entry</title>
<path fill="none" stroke="#7916a4" d="M311.971,-173.996C344.506,-170.799 393.15,-162.507 429.688,-141 440.249,-134.784 449.68,-125.183 457.076,-116.121"/>
<ellipse fill="none" stroke="#7916a4" cx="307.638" cy="-174.382" rx="4" ry="4"/>
<polygon fill="#7916a4" stroke="#7916a4" points="457.175,-115.992 466.837,-110.806 460.222,-112.028 463.269,-108.063 463.269,-108.063 463.269,-108.063 460.222,-112.028 459.702,-105.321 457.175,-115.992 457.175,-115.992"/>
</g>
<!-- User&#45;&gt;OffMeeting -->
<g id="edge6" class="edge"><title>User&#45;&gt;OffMeeting</title>
<path fill="none" stroke="#269948" d="M282.808,-202.879C283.592,-214.459 283.644,-228.268 282.963,-240.141"/>
<ellipse fill="none" stroke="#269948" cx="282.457" cy="-198.885" rx="4" ry="4"/>
<polygon fill="#269948" stroke="#269948" points="282.952,-240.276 277.66,-249.881 282.549,-245.26 282.146,-250.243 282.146,-250.243 282.146,-250.243 282.549,-245.26 286.631,-250.606 282.952,-240.276 282.952,-240.276"/>
</g>
<!-- User&#45;&gt;Question -->
<g id="edge8" class="edge"><title>User&#45;&gt;Question</title>
<path fill="none" stroke="#a39a32" d="M241.753,-174.453C212.168,-171.526 170.009,-163.372 140.688,-141 132.991,-135.127 127.064,-126.488 122.688,-118.092"/>
<ellipse fill="none" stroke="#a39a32" cx="245.757" cy="-174.801" rx="4" ry="4"/>
<polygon fill="#a39a32" stroke="#a39a32" points="122.618,-117.942 122.473,-106.977 120.506,-113.41 118.394,-108.878 118.394,-108.878 118.394,-108.878 120.506,-113.41 114.315,-110.779 122.618,-117.942 122.618,-117.942"/>
</g>
<!-- User&#45;&gt;Relationship -->
<g id="edge10" class="edge"><title>User&#45;&gt;Relationship</title>
<path fill="none" stroke="#37872e" d="M242.24,-171.478C207.79,-166.165 158.301,-156.11 146.722,-141 142.937,-136.061 143.063,-132.033 146.722,-127 157.476,-112.208 174.624,-103.541 192.116,-98.5027"/>
<ellipse fill="none" stroke="#37872e" cx="246.252" cy="-172.075" rx="4.00001" ry="4.00001"/>
<polygon fill="#37872e" stroke="#37872e" points="192.132,-98.4987 202.927,-100.425 196.981,-97.2798 201.83,-96.0609 201.83,-96.0609 201.83,-96.0609 196.981,-97.2798 200.733,-91.6966 192.132,-98.4987 192.132,-98.4987"/>
<text text-anchor="middle" x="203.671" y="-129.8" font-family="Times,serif" font-size="14.00">active_relationships</text>
</g>
<!-- User&#45;&gt;Relationship -->
<g id="edge11" class="edge"><title>User&#45;&gt;Relationship</title>
<path fill="none" stroke="#5e56ca" d="M270.138,-150.991C267.475,-140.824 264.393,-129.058 261.686,-118.721"/>
<ellipse fill="none" stroke="#5e56ca" cx="271.222" cy="-155.132" rx="4.00001" ry="4.00001"/>
<polygon fill="#5e56ca" stroke="#5e56ca" points="261.667,-118.647 263.486,-107.833 260.4,-113.81 259.133,-108.973 259.133,-108.973 259.133,-108.973 260.4,-113.81 254.78,-110.114 261.667,-118.647 261.667,-118.647"/>
<text text-anchor="middle" x="327.567" y="-129.8" font-family="Times,serif" font-size="14.00">passive_relationships</text>
</g>
<!-- User&#45;&gt;User -->
<g id="edge12" class="edge"><title>User&#45;&gt;User</title>
<path fill="none" stroke="#4bb371" d="M313.631,-179.972C318.477,-179.463 321.688,-178.472 321.688,-177 321.688,-175.528 318.477,-174.537 313.631,-174.028"/>
<polygon fill="#4bb371" stroke="#4bb371" points="313.475,-179.978 303.307,-175.871 308.479,-180.173 303.483,-180.368 303.483,-180.368 303.483,-180.368 308.479,-180.173 303.658,-184.864 313.475,-179.978 313.475,-179.978"/>
<polygon fill="#4bb371" stroke="#4bb371" points="313.475,-174.022 303.658,-169.136 308.479,-173.827 303.483,-173.632 303.483,-173.632 303.483,-173.632 308.479,-173.827 303.307,-178.129 313.475,-174.022 313.475,-174.022"/>
<text text-anchor="middle" x="348.908" y="-172.8" font-family="Times,serif" font-size="14.00">following</text>
</g>
<!-- User&#45;&gt;User -->
<g id="edge13" class="edge"><title>User&#45;&gt;User</title>
<path fill="none" stroke="#f2bfb5" d="M312.632,-183.055C341.917,-184.962 376.129,-182.944 376.129,-177 376.129,-171.056 341.917,-169.038 312.632,-170.945"/>
<polygon fill="#f2bfb5" stroke="#f2bfb5" points="312.509,-183.045 302.916,-177.732 307.527,-182.631 302.544,-182.217 302.544,-182.217 302.544,-182.217 307.527,-182.631 302.171,-186.702 312.509,-183.045 312.509,-183.045"/>
<polygon fill="#f2bfb5" stroke="#f2bfb5" points="312.509,-170.955 302.171,-167.298 307.527,-171.369 302.544,-171.783 302.544,-171.783 302.544,-171.783 307.527,-171.369 302.916,-176.268 312.509,-170.955 312.509,-170.955"/>
<text text-anchor="middle" x="402.567" y="-172.8" font-family="Times,serif" font-size="14.00">followers</text>
</g>
</g>
</svg>
